PathFileType	4	(X/Y/Z)	/Users/mathieubourgeois/Desktop/Analyse/Traitement/Sujet_02/Data/Transformed_Sujet_02_velo_100.trc
DataRate	CameraRate	NumFrames	NumMarkers	Units	OrigDataRate	OrigDataStartFrame	OrigNumFrames
120.000000	120.000000	4	36	mm	120.000000	941	1882
Frame#	Time	RFHD			RANE			STRN			LANI			LKNE			T10			RHUM			RWRB			C7			LFWT			LTOE			RTOE			LWRA			LBWT			RBWT			RFWT			LKNI			RKNI			RKNE			LANE			RANI			LHEE			RHEE			LHUM			LRAD			RRAD			RWRA			LWRB			LFHD			LBHD			RBHD			RSHO			LSHO			CLAV			LCAR			RCAR			
		X1	Y1	Z1	X2	Y2	Z2	X3	Y3	Z3	X4	Y4	Z4	X5	Y5	Z5	X6	Y6	Z6	X7	Y7	Z7	X8	Y8	Z8	X9	Y9	Z9	X10	Y10	Z10	X11	Y11	Z11	X12	Y12	Z12	X13	Y13	Z13	X14	Y14	Z14	X15	Y15	Z15	X16	Y16	Z16	X17	Y17	Z17	X18	Y18	Z18	X19	Y19	Z19	X20	Y20	Z20	X21	Y21	Z21	X22	Y22	Z22	X23	Y23	Z23	X24	Y24	Z24	X25	Y25	Z25	X26	Y26	Z26	X27	Y27	Z27	X28	Y28	Z28	X29	Y29	Z29	X30	Y30	Z30	X31	Y31	Z31	X32	Y32	Z32	X33	Y33	Z33	X34	Y34	Z34	X35	Y35	Z35	X36	Y36	Z36	

942	7.841666666666667	64.29978942871092	1476.526245117188	132.5995178222655	-388.1285095214844	439.0745849609375	176.4828796386718	-208.7261199951172	1284.299682617188	28.69561386108388	-116.2934875488281	431.403564453125	-66.01569366455082	-87.58567810058592	861.3963623046875	-120.7476882934571	-359.6036987304688	1514.988403320312	30.19135665893541	-57.69434356689456	1180.736694335938	221.9317474365234	176.001220703125	1025.625732421875	164.0515899658203	-142.5496520996094	1571.350463867188	26.6123695373534	-398.8695068359375	1220.750244140625	-90.62832641601574	88.40627288818361	405.80615234375	-125.7559051513672	-224.8458404541016	282.7765197753906	154.9238739013671	216.866683959961	1048.83154296875	-157.7320404052735	-590.1774291992188	1205.919677734375	-43.7360992431642	-591.9578247070312	1211.64501953125	77.65894317626939	-419.3659362792969	1229.996826171875	177.953399658203	-41.80857467651367	837.1646728515625	-21.46423721313482	-102.5537719726563	773.3158569335938	115.7871093749999	-150.1335601806641	814.75927734375	219.5956878662109	-136.569091796875	421.3417358398438	-157.7289733886719	-358.775634765625	443.1736450195312	89.4442062377929	-200.2236022949218	373.1332092285156	-118.9416885375977	-463.020263671875	443.0440979003906	120.5791473388671	-22.51500320434569	1217.859252929688	-156.001434326172	34.1964912414551	1255.453735351562	-184.6718139648438	-7.704553604126009	1225.558837890625	269.4550170898437	205.4142761230468	1054.3564453125	223.1528167724609	179.0029754638672	1023.720764160156	-98.2294616699219	69.20283508300781	1434.255737304688	-29.83084297180184	-3.222111940383905	1567.947265625	-50.37656784057627	7.449198246002184	1593.899536132812	106.3149871826171	-121.1519775390625	1513.123046875	177.2039642333983	-102.978401184082	1520.973510742188	-104.88973236084	-102.8303070068359	1425.69287109375	11.72360801696767	291.0226745605469	1039.642456054688	-71.47692871093751	293.6935729980469	1017.590454101562	145.422866821289	
943	7.85	64.1259307861328	1477.130004882812	133.6889190673827	-385.7361145019531	455.1329345703125	177.0931549072265	-208.6860504150391	1284.284545898438	29.30996894836415	-117.2023162841797	415.1544189453125	-66.85639953613286	-95.69898986816405	846.021484375	-122.019401550293	-359.8318481445312	1514.819946289062	30.59905433654772	-57.61103820800784	1180.937377929688	221.0723571777343	176.0155639648437	1025.618286132812	163.6603088378906	-142.8684997558594	1571.576782226562	27.86174583435047	-398.4076538085938	1219.867797851562	-91.20128631591808	88.14229583740236	389.0575561523438	-126.1861724853516	-224.5767669677735	297.1366271972656	154.6887054443359	216.7630767822266	1048.760131835938	-158.0144653320313	-589.995361328125	1206.048583984375	-43.92173385620131	-592.0783081054688	1211.4736328125	77.4371185302733	-419.502197265625	1229.804443359375	177.4306335449217	-49.10575103759766	822.271484375	-24.87449645996099	-93.91994476318361	784.880615234375	116.4971466064453	-142.1949310302735	825.7140502929688	221.0204925537109	-137.6795806884765	404.7741088867188	-158.2950744628907	-356.6083374023438	459.0328369140625	89.92311096191399	-200.7042541503906	357.0647277832031	-119.6941680908204	-461.175048828125	460.3033447265625	121.5443496704101	-22.32780838012694	1218.213256835938	-155.5366516113282	34.33333969116213	1255.801025390625	-184.1385650634766	-7.735645294189486	1225.567626953125	268.9177856445312	205.3317565917968	1054.556274414062	222.817642211914	178.4873962402344	1023.235229492188	-98.325065612793	69.25920104980469	1435.090209960938	-28.64059448242196	-3.369509220123285	1568.654418945312	-49.06301116943369	7.084501743316637	1594.31591796875	107.5748291015624	-121.8804626464844	1513.2412109375	178.3558959960936	-103.1231918334961	1521.110717773438	-103.7706909179689	-103.0115814208984	1426.047973632812	12.87408828735342	290.926025390625	1039.670043945312	-71.9305877685547	293.71142578125	1017.651123046875	145.0364990234375	
944	7.858333333333333	63.931095123291	1477.646118164062	134.9858856201171	-382.2602844238281	471.0045776367188	177.7910766601562	-208.5414276123047	1284.233520507812	29.93740081787099	-116.4787368774414	399.49951171875	-66.89311981201176	-105.176399230957	831.9509887695312	-123.5019912719727	-359.9932556152344	1514.626708984375	31.03605270385729	-57.50679779052737	1181.152709960938	220.1934509277343	176.028335571289	1025.593505859375	163.1128997802734	-143.0947570800781	1571.760009765625	28.93118095397938	-397.9492492675781	1219.041381835938	-91.65500640869152	86.43444824218751	372.2546691894531	-126.8821716308594	-222.6120758056641	312.0386962890625	154.1955261230468	216.7433471679688	1048.690063476562	-158.3361358642578	-589.6644287109375	1206.24853515625	-44.22171020507827	-592.1630859375	1211.343383789062	77.1342391967772	-419.6080932617188	1229.55419921875	176.9246978759764	-59.64329528808594	806.74072265625	-26.52643585205084	-87.06848907470705	796.34521484375	116.6556167602538	-134.6557922363282	837.3072509765625	221.9371643066405	-139.3668975830078	388.7925109863281	-159.0589904785157	-353.8995971679688	474.8774108886719	90.36103057861321	-202.5941314697265	341.6190185546875	-120.5320816040039	-458.1525268554688	476.9578552246094	122.612693786621	-22.08928298950194	1218.467895507812	-155.0874481201173	34.57274627685549	1256.083374023438	-183.6510162353516	-7.765818119049105	1225.609008789062	268.3041687011718	205.3185272216797	1054.606689453125	222.3276672363281	178.4339904785156	1022.987548828125	-98.73975372314456	69.39054107666016	1435.927734375	-27.41509437561043	-3.488939285278315	1569.257446289062	-47.77945327758799	6.731730461120592	1594.732177734375	108.8927536010741	-122.5318222045899	1513.426635742188	179.471466064453	-103.2093963623047	1521.220092773438	-102.6503829956056	-103.0990753173828	1426.322265625	14.04375839233388	290.8963623046875	1039.666381835938	-72.42244720458986	293.7244262695312	1017.723815917969	144.5390930175781	
945	7.866666666666666	63.7004051208496	1478.346557617188	136.5658416748046	-377.8112487792969	486.8506774902344	178.5825042724609	-208.2762908935547	1284.112426757812	30.48488426208486	-120.9167022705078	384.6181030273438	-68.54104614257817	-114.8997802734375	817.6543579101562	-125.0869064331055	-360.0968627929688	1514.423095703125	31.47346878051744	-57.3479919433594	1181.440063476562	219.3142852783202	176.048095703125	1025.577758789062	162.5563812255859	-143.2271881103516	1571.944580078125	30.08752822875965	-397.3405151367188	1218.275634765625	-92.07755279541027	83.26385498046876	355.5712585449219	-127.7332000732422	-219.1588745117188	327.4151611328125	153.9362030029296	216.7529296875	1048.588134765625	-158.6940307617188	-589.2647705078125	1206.483154296875	-44.6221084594728	-592.171630859375	1211.248046875	76.71514129638658	-419.6661071777344	1229.328125	176.4173736572264	-74.86726379394531	790.2601318359375	-24.94146537780768	-78.7465057373047	809.4295043945312	117.0782775878906	-127.2542495727539	848.8743286132812	222.4935302734374	-142.8548889160156	373.2088928222656	-159.9146575927735	-350.3380126953125	490.6639404296875	90.85853576660149	-205.9268798828125	326.7577514648438	-121.2397689819336	-454.2843017578125	493.0536193847656	123.7923965454101	-21.80861282348631	1218.671875	-154.7041778564454	34.79103088378908	1256.325805664062	-183.2545776367188	-7.705031871795687	1225.665405273438	267.6850280761718	205.3408660888672	1054.4951171875	221.667236328125	178.8539733886719	1022.947998046875	-99.44447326660159	69.61214447021484	1436.762939453125	-26.11093711853036	-3.510548830032343	1569.818603515625	-46.47540283203135	6.466195106506334	1595.094360351562	110.2549209594726	-123.1578826904297	1513.701538085938	180.6398773193358	-103.205825805664	1521.358032226562	-101.4838027954103	-103.0676651000977	1426.488647460938	15.30738925933828	290.8662719726562	1039.648803710938	-72.96743774414064	293.7352600097656	1017.75341796875	143.9951171875	
